<?xml version="1.0" encoding="utf-8"?><svg viewBox="0 0 60 60" xmlns="http://www.w3.org/2000/svg" xmlns:xlink="http://www.w3.org/1999/xlink"><style>:root>svg{display:none}:root>svg:target{display:block}</style><svg viewBox="0 0 60 60" id="arrow" xmlns="http://www.w3.org/2000/svg"><defs><circle id="aa" cx="29" cy="29" r="29"/><path id="ac" d="M16 8l-1.41-1.41L9 12.17V0H7v12.17L1.42 6.58 0 8l8 8z"/></defs><g fill="none" fill-rule="evenodd" transform="translate(1 1)"><mask id="ab" fill="#fff"><use xlink:href="#aa"/></mask><use fill="#FFF" fill-opacity=".454" stroke="#DADADA" xlink:href="#aa"/><g mask="url(#ab)"><use fill="#949494" xlink:href="#ac" transform="rotate(-90 29 8)"/></g></g></svg><svg viewBox="0 0 30 30" id="favorite-empty" xmlns="http://www.w3.org/2000/svg"><g fill="none" fill-rule="evenodd"><circle cx="15" cy="15" r="15" fill="#FAFAFA"/><path stroke="#1A77D2" stroke-linecap="square" d="M9 13.25c0-1.933 1.584-3.76 3.5-3.5 1.034.14 1.865.872 2.5 1.52.635-.648 1.488-1.38 2.5-1.52 1.915-.265 3.5 1.567 3.5 3.5 0 4.5-6 8.5-6 8.5s-6-4-6-8.5z"/></g></svg><svg viewBox="0 0 30 30" id="favorite-full" xmlns="http://www.w3.org/2000/svg"><g fill="none" fill-rule="evenodd"><circle fill="#F5F5F5" cx="15" cy="15" r="15"/><path d="M9 12.526c0-1.933 1.584-3.76 3.5-3.5 1.034.14 1.865.872 2.5 1.52.635-.648 1.488-1.38 2.5-1.52 1.915-.265 3.5 1.567 3.5 3.5 0 4.5-6 8.5-6 8.5s-6-4-6-8.5z" stroke="#1A77D2" fill="#1A77D2" stroke-linecap="square"/></g></svg><svg viewBox="0 0 14 14" id="star" xmlns="http://www.w3.org/2000/svg"><path fill="#FFECB3" fill-rule="evenodd" stroke="#FFD862" d="M7.095 10.5l-4.171 2.163.797-4.581L.347 4.837l4.663-.669L7.095 0 9.18 4.168l4.662.669-3.374 3.245.797 4.581z"/></svg><svg viewBox="0 0 14 13" id="star-empty" xmlns="http://www.w3.org/2000/svg"><path fill="#DADADA" fill-rule="evenodd" d="M7.203 10.5l-4.17 2.163.796-4.581L.455 4.837l4.663-.669L7.203 0l2.085 4.168 4.662.669-3.374 3.245.797 4.581z"/></svg></svg>